<svg width="72" height="72" viewBox="0 0 72 72" fill="none" xmlns="http://www.w3.org/2000/svg">
<g clip-path="url(#clip0_4_123)">
<path d="M11.25 36C11.25 22.32 22.32 11.25 36 11.25C49.68 11.25 60.75 22.32 60.75 36C60.75 49.68 49.68 60.75 36 60.75C22.32 60.75 11.25 49.68 11.25 36ZM36 5.25C19.02 5.25 5.25 19.02 5.25 36C5.25 52.98 19.02 66.75 36 66.75C52.98 66.75 66.75 52.98 66.75 36C66.75 19.02 52.98 5.25 36 5.25ZM21.75 39.75C23.82 39.75 25.5 38.07 25.5 36C25.5 33.93 23.82 32.25 21.75 32.25C19.68 32.25 18 33.93 18 36C18 38.07 19.68 39.75 21.75 39.75ZM50.25 39.75C52.32 39.75 54 38.07 54 36C54 33.93 52.32 32.25 50.25 32.25C48.18 32.25 46.5 33.93 46.5 36C46.5 38.07 48.18 39.75 50.25 39.75ZM39.75 36C39.75 38.07 38.07 39.75 36 39.75C33.93 39.75 32.25 38.07 32.25 36C32.25 33.93 33.93 32.25 36 32.25C38.07 32.25 39.75 33.93 39.75 36Z" fill="black"/>
</g>
<defs>
<clipPath id="clip0_4_123">
<rect width="72" height="72" fill="white"/>
</clipPath>
</defs>
</svg>
