<svg width="72" height="72" viewBox="0 0 72 72" fill="none" xmlns="http://www.w3.org/2000/svg">
<g clip-path="url(#clip0_4_111)">
<path d="M46.362 26.97C47.733 26.82 49.035 26.46 50.25 25.92C49.344 27.27 48.195 28.44 46.875 29.37C46.887 29.67 46.893 29.94 46.893 30.24C46.893 39.06 40.086 49.2 27.63 49.2C23.808 49.2 20.25 48.09 17.253 46.2C17.784 46.26 18.324 46.29 18.87 46.29C22.041 46.29 24.96 45.24 27.279 43.44C24.315 43.38 21.816 41.46 20.952 38.82C21.366 38.91 21.792 38.94 22.227 38.94C22.845 38.94 23.442 38.85 24.012 38.7C20.913 38.1 18.579 35.4 18.579 32.16V32.07C19.494 32.58 20.535 32.88 21.648 32.91C19.83 31.71 18.636 29.67 18.636 27.36C18.636 26.16 18.969 25.02 19.551 24.03C22.89 28.05 27.876 30.69 33.507 30.99C33.393 30.48 33.333 30 33.333 29.46C33.333 25.77 36.363 22.8 40.101 22.8C42.048 22.8 43.806 23.61 45.042 24.9C46.584 24.6 48.033 24.06 49.341 23.28C48.837 24.84 47.76 26.16 46.362 26.97ZM5.25 63H50.25C59.364 63 66.75 55.62 66.75 46.5C66.75 42.3 65.178 38.46 62.595 35.55C62.355 35.28 62.328 34.89 62.526 34.59C64.248 31.98 65.25 28.86 65.25 25.5C65.25 16.38 57.864 9 48.75 9H5.25V63ZM48.75 15C54.549 15 59.25 19.71 59.25 25.5C59.25 28.53 57.96 31.29 55.89 33.21C54.486 34.5 54.648 36.78 56.223 37.86C58.965 39.75 60.75 42.93 60.75 46.5C60.75 52.29 56.049 57 50.25 57H11.25V15H48.75Z" fill="black"/>
</g>
<defs>
<clipPath id="clip0_4_111">
<rect width="72" height="72" fill="white"/>
</clipPath>
</defs>
</svg>
