<svg width="72" height="72" viewBox="0 0 72 72" fill="none" xmlns="http://www.w3.org/2000/svg">
<g clip-path="url(#clip0_4_165)">
<path d="M5.98779 16.5C5.98779 12.36 9.34479 9 13.4878 9H58.4878C62.6278 9 65.9878 12.36 65.9878 16.5V55.5C65.9878 59.64 62.6278 63 58.4878 63H13.4878C9.34479 63 5.98779 59.64 5.98779 55.5V16.5ZM13.4878 15C12.6568 15 11.9878 15.66 11.9878 16.5V55.5C11.9878 56.34 12.6568 57 13.4878 57H58.4878C59.3158 57 59.9878 56.34 59.9878 55.5V16.5C59.9878 15.66 59.3158 15 58.4878 15H13.4878ZM37.7428 30H26.9878V24H47.9878V45H41.9878V34.23L26.1088 50.13L21.8638 45.87L37.7428 30Z" fill="black"/>
</g>
<defs>
<clipPath id="clip0_4_165">
<rect width="72" height="72" fill="white"/>
</clipPath>
</defs>
</svg>
