<svg width="72" height="72" viewBox="0 0 72 72" fill="none" xmlns="http://www.w3.org/2000/svg">
<g clip-path="url(#clip0_4_177)">
<path d="M31.62 5.25H40.38L45.09 12.33C45.42 12.84 46.05 13.08 46.68 12.96L54.27 11.19L60.78 17.7L59.04 25.32C58.89 25.92 59.16 26.55 59.67 26.91L66.75 31.62V40.38L59.67 45.09C59.16 45.45 58.89 46.08 59.04 46.68L60.78 54.3L54.27 60.81L46.68 59.04C46.05 58.92 45.42 59.16 45.09 59.67L40.38 66.75H31.62L26.88 59.67C26.55 59.16 25.92 58.92 25.32 59.04L17.7 60.81L11.19 54.3L12.93 46.68C13.08 46.08 12.84 45.45 12.3 45.09L5.25 40.38V31.62L12.3 26.91C12.84 26.55 13.08 25.92 12.93 25.32L11.19 17.7L17.7 11.19L25.32 12.96C25.92 13.08 26.55 12.84 26.88 12.33L31.62 5.25ZM34.83 11.25L31.89 15.66C30.15 18.24 27 19.5 23.97 18.81L19.59 17.79L17.79 19.59L18.78 23.97C19.5 27 18.24 30.18 15.63 31.89L11.25 34.83V37.17L15.63 40.11C18.24 41.82 19.5 45 18.78 48.03L17.79 52.41L19.59 54.21L23.97 53.19C27 52.5 30.15 53.76 31.89 56.34L34.83 60.75H37.17L40.08 56.34C41.82 53.76 44.97 52.5 48.03 53.19L52.38 54.21L54.21 52.41L53.19 48.03C52.5 45 53.73 41.82 56.34 40.11L60.75 37.17V34.83L56.34 31.89C53.73 30.18 52.5 27 53.19 23.97L54.21 19.59L52.38 17.79L48.03 18.81C44.97 19.5 41.82 18.24 40.08 15.66L37.17 11.25H34.83ZM36 31.5C33.51 31.5 31.5 33.51 31.5 36C31.5 38.49 33.51 40.5 36 40.5C38.46 40.5 40.5 38.49 40.5 36C40.5 33.51 38.46 31.5 36 31.5ZM25.5 36C25.5 30.21 30.18 25.5 36 25.5C41.79 25.5 46.5 30.21 46.5 36C46.5 41.79 41.79 46.5 36 46.5C30.18 46.5 25.5 41.79 25.5 36Z" fill="black"/>
</g>
<defs>
<clipPath id="clip0_4_177">
<rect width="72" height="72" fill="white"/>
</clipPath>
</defs>
</svg>
