<svg width="72" height="72" viewBox="0 0 72 72" fill="none" xmlns="http://www.w3.org/2000/svg">
<g clip-path="url(#clip0_4_189)">
<path d="M58.5898 38.91H64.5898V58.41C64.5898 62.55 61.2298 65.91 57.0898 65.91H12.0898C7.94984 65.91 4.58984 62.55 4.58984 58.41V19.41C4.58984 15.27 7.94984 11.91 12.0898 11.91H31.5898V17.91H12.0898C11.2498 17.91 10.5898 18.57 10.5898 19.41V58.41C10.5898 59.25 11.2498 59.91 12.0898 59.91H57.0898C57.8998 59.91 58.5898 59.25 58.5898 58.41V38.91ZM65.5198 18.57L46.5298 40.11C45.9298 46.17 40.7998 50.91 34.5898 50.91H22.5898V38.91C22.5898 32.7 27.3298 27.57 33.3898 26.97L54.9298 7.97995C57.8998 5.33995 62.3998 5.48995 65.2198 8.27995C68.0098 11.1 68.1598 15.6 65.5198 18.57ZM60.9598 12.54C60.3898 11.97 59.4898 11.94 58.8898 12.48L40.6498 28.56C42.4198 29.61 43.8898 31.08 44.9398 32.85L61.0198 14.61C61.5598 14.01 61.5298 13.11 60.9598 12.54Z" fill="black"/>
</g>
<defs>
<clipPath id="clip0_4_189">
<rect width="72" height="72" fill="white"/>
</clipPath>
</defs>
</svg>
