<svg width="72" height="72" viewBox="0 0 72 72" fill="none" xmlns="http://www.w3.org/2000/svg">
<g clip-path="url(#clip0_4_183)">
<path d="M34.71 35.88L37.68 33.51C38.67 32.73 39.36 31.92 39.78 31.11C40.23 30.3 40.44 29.4 40.44 28.38C40.44 27.15 40.08 26.16 39.3 25.47C38.52 24.78 37.44 24.42 36.03 24.42C34.62 24.42 33.48 24.78 32.64 25.53C31.86 26.28 31.44 27.3 31.44 28.62C31.44 29.22 31.53 29.88 31.68 30.57L25.47 30.12C25.29 29.25 25.2 28.47 25.2 27.75C25.2 25.23 26.19 23.22 28.14 21.72C30.15 20.25 32.79 19.5 36.12 19.5C39.63 19.5 42.33 20.22 44.25 21.69C46.14 23.13 47.1 25.17 47.1 27.81C47.1 30.75 45.69 33.39 42.9 35.76L40.29 37.95C39.78 38.4 39.42 38.79 39.21 39.15C39.03 39.48 38.94 39.93 38.94 40.5V41.88H32.64V39.87C32.64 38.97 32.82 38.22 33.15 37.62C33.51 37.02 34.02 36.45 34.71 35.88ZM33.15 51.39C33.87 52.14 34.83 52.5 35.94 52.5C37.11 52.5 38.04 52.14 38.76 51.39C39.51 50.64 39.87 49.71 39.87 48.57C39.87 47.4 39.51 46.47 38.76 45.72C38.04 44.97 37.11 44.61 35.94 44.61C34.83 44.61 33.87 44.97 33.15 45.72C32.43 46.47 32.07 47.4 32.07 48.57C32.07 49.71 32.43 50.64 33.15 51.39ZM66.75 36C66.75 52.98 52.98 66.75 36 66.75C19.02 66.75 5.25 52.98 5.25 36C5.25 19.02 19.02 5.25 36 5.25C52.98 5.25 66.75 19.02 66.75 36ZM36 60.75C49.68 60.75 60.75 49.68 60.75 36C60.75 22.32 49.68 11.25 36 11.25C22.32 11.25 11.25 22.32 11.25 36C11.25 49.68 22.32 60.75 36 60.75Z" fill="black"/>
</g>
<defs>
<clipPath id="clip0_4_183">
<rect width="72" height="72" fill="white"/>
</clipPath>
</defs>
</svg>
