<svg width="72" height="72" viewBox="0 0 72 72" fill="none" xmlns="http://www.w3.org/2000/svg">
<g clip-path="url(#clip0_4_93)">
<path d="M59.9791 27.126C58.4401 15.051 48.1621 6 35.9881 6C23.8141 6 13.5181 15.063 11.9911 27.153L8.59814 54H21.3001C22.6891 60.846 28.7431 66 36.0001 66C43.2571 66 49.3111 60.846 50.7001 54H63.4081L59.9791 27.126ZM36.0001 60C32.0821 60 28.7491 57.495 27.5131 54H44.4871C43.2511 57.495 39.9181 60 36.0001 60ZM15.4021 48L17.9431 27.906C19.0921 18.816 26.8231 12 35.9881 12C45.1531 12 52.8691 18.804 54.0271 27.885L56.5921 48H15.4021Z" fill="black"/>
</g>
<defs>
<clipPath id="clip0_4_93">
<rect width="72" height="72" fill="white"/>
</clipPath>
</defs>
</svg>
