<svg width="72" height="72" viewBox="0 0 72 72" fill="none" xmlns="http://www.w3.org/2000/svg">
<g clip-path="url(#clip0_4_99)">
<path d="M5.99414 16.5C5.99414 12.357 9.35114 9 13.4941 9H58.4941C62.6371 9 65.9941 12.357 65.9941 16.5V55.5C65.9941 59.643 62.6371 63 58.4941 63H13.4941C9.35114 63 5.99414 59.643 5.99414 55.5V16.5ZM13.4941 15C12.6661 15 11.9941 15.672 11.9941 16.5V24.792L35.9941 35.706L59.9941 24.798V16.5C59.9941 15.672 59.3221 15 58.4941 15H13.4941ZM59.9941 31.389L35.9941 42.297L11.9941 31.383V55.5C11.9941 56.328 12.6661 57 13.4941 57H58.4941C59.3221 57 59.9941 56.328 59.9941 55.5V31.389Z" fill="black"/>
</g>
<defs>
<clipPath id="clip0_4_99">
<rect width="72" height="72" fill="white"/>
</clipPath>
</defs>
</svg>
