<svg width="72" height="72" viewBox="0 0 72 72" fill="none" xmlns="http://www.w3.org/2000/svg">
<g clip-path="url(#clip0_4_159)">
<path d="M15.0898 66.03H6.08984V57.03C6.08984 52.068 10.1278 48.03 15.0898 48.03C20.0518 48.03 24.0898 52.068 24.0898 57.03C24.0898 61.992 20.0518 66.03 15.0898 66.03ZM12.0898 60.03H15.0898C16.7428 60.03 18.0898 58.683 18.0898 57.03C18.0898 55.377 16.7428 54.03 15.0898 54.03C13.4368 54.03 12.0898 55.377 12.0898 57.03V60.03ZM34.8718 63.876L33.8638 60.441C33.0508 57.672 31.8718 55.02 30.3658 52.56C29.0098 50.352 27.3898 48.297 25.5448 46.452C23.6668 44.577 21.5788 42.933 19.3378 41.571C16.8748 40.074 14.2198 38.907 11.4478 38.1L7.99484 37.095L16.0258 21.03H31.6018C33.4408 19.122 37.6468 14.799 39.8758 12.798C47.1088 6.30003 62.2018 6.03903 62.8438 6.03003L65.9188 5.99103L65.8798 9.06603C65.8708 9.70503 65.6098 24.801 59.1118 32.034C57.1828 34.179 53.0998 38.163 51.0988 40.098V55.815L34.8778 63.879H34.8718V63.876ZM36.7918 51.738C37.4128 52.926 37.9708 54.144 38.4628 55.389L45.0928 52.092V45.093L36.7888 51.735L36.7918 51.738ZM25.2748 38.334C26.8678 39.507 28.3768 40.803 29.7838 42.21C31.1608 43.587 32.4328 45.063 33.5848 46.623L45.8968 36.771C46.7038 36 52.4038 30.519 54.6448 28.026C57.8968 24.402 59.2378 17.025 59.6878 12.219C54.8818 12.666 47.5048 14.007 43.8838 17.259C41.3878 19.503 35.9098 25.2 35.1358 26.007L25.2748 38.334ZM16.4998 33.492C17.7418 33.981 18.9568 34.533 20.1418 35.145L26.6368 27.027H19.7338L16.5028 33.489L16.4998 33.492Z" fill="black"/>
</g>
<defs>
<clipPath id="clip0_4_159">
<rect width="72" height="72" fill="white"/>
</clipPath>
</defs>
</svg>
