<svg width="72" height="72" viewBox="0 0 72 72" fill="none" xmlns="http://www.w3.org/2000/svg">
<g clip-path="url(#clip0_4_195)">
<path d="M35.9971 66.75C19.0411 66.75 5.24707 52.956 5.24707 36C5.24707 19.044 19.0411 5.25 35.9971 5.25C52.9531 5.25 66.7471 19.044 66.7471 36C66.7471 52.956 52.9531 66.75 35.9971 66.75ZM35.9971 11.25C22.3501 11.25 11.2471 22.353 11.2471 36C11.2471 49.647 22.3501 60.75 35.9971 60.75C49.6441 60.75 60.7471 49.647 60.7471 36C60.7471 22.353 49.6441 11.25 35.9971 11.25ZM37.3321 32.226C42.5731 31.938 48.5761 30.159 48.6361 30.141L50.3611 35.889C50.1301 35.955 45.5131 37.329 40.4971 37.956V39.45C41.3581 43.131 45.5581 48.048 47.1391 49.665L42.8551 53.865C42.2911 53.292 38.3011 49.137 35.9971 44.433C33.6901 49.137 29.7031 53.289 29.1391 53.865L24.8551 49.665C26.4361 48.045 30.6361 43.131 31.4971 39.45V37.956C26.4811 37.329 21.8641 35.955 21.6331 35.889L23.3581 30.141C23.4181 30.159 29.4211 31.941 34.6621 32.226M34.6621 32.226C35.5651 32.277 36.4291 32.277 37.3321 32.226ZM36.0001 18.75C33.0991 18.75 30.7501 21.09 30.7501 24C30.7501 26.91 33.0991 29.25 36.0001 29.25C38.9011 29.25 41.2501 26.91 41.2501 24C41.2501 21.09 38.8981 18.75 36.0001 18.75Z" fill="black"/>
</g>
<defs>
<clipPath id="clip0_4_195">
<rect width="72" height="72" fill="white"/>
</clipPath>
</defs>
</svg>
