<svg width="72" height="72" viewBox="0 0 72 72" fill="none" xmlns="http://www.w3.org/2000/svg">
<g clip-path="url(#clip0_4_117)">
<path d="M16.9531 58.5H55.0471C54.0361 53.1 51.9781 48.87 49.2121 45.93C45.9541 42.45 41.5141 40.5 36.0001 40.5C30.4861 40.5 26.0491 42.45 22.7881 45.93C20.0221 48.87 17.9641 53.1 16.9531 58.5ZM18.4111 41.82C22.8811 37.05 28.9441 34.5 36.0001 34.5C43.0561 34.5 49.1191 37.05 53.5891 41.82C58.0201 46.56 60.6871 53.22 61.4851 61.2L61.8151 64.5H10.1851L10.5151 61.2C11.3131 53.22 13.9801 46.56 18.4111 41.82ZM36.0001 13.5C32.6851 13.5 30.0001 16.2 30.0001 19.5C30.0001 22.8 32.6851 25.5 36.0001 25.5C39.3151 25.5 42.0001 22.8 42.0001 19.5C42.0001 16.2 39.3151 13.5 36.0001 13.5ZM24.0001 19.5C24.0001 12.87 29.3731 7.5 36.0001 7.5C42.6271 7.5 48.0001 12.87 48.0001 19.5C48.0001 26.13 42.6271 31.5 36.0001 31.5C29.3731 31.5 24.0001 26.13 24.0001 19.5Z" fill="black"/>
</g>
<defs>
<clipPath id="clip0_4_117">
<rect width="72" height="72" fill="white"/>
</clipPath>
</defs>
</svg>
