<svg width="72" height="72" viewBox="0 0 72 72" fill="none" xmlns="http://www.w3.org/2000/svg">
<g clip-path="url(#clip0_4_141)">
<path d="M27.9 13.5C24.585 13.5 21.9 16.2 21.9 19.5C21.9 22.8 24.585 25.5 27.9 25.5C31.215 25.5 33.9 22.8 33.9 19.5C33.9 16.2 31.215 13.5 27.9 13.5ZM15.9 19.5C15.9 12.87 21.273 7.5 27.9 7.5C34.527 7.5 39.9 12.87 39.9 19.5C39.9 26.13 34.527 31.5 27.9 31.5C21.273 31.5 15.9 26.13 15.9 19.5ZM8.85296 58.5H46.947C45.936 53.1 43.878 48.87 41.112 45.93C37.854 42.45 33.414 40.5 27.9 40.5C22.386 40.5 17.949 42.45 14.688 45.93C11.922 48.87 9.86396 53.1 8.85296 58.5ZM10.311 41.82C14.781 37.05 20.844 34.5 27.9 34.5C34.956 34.5 41.019 37.05 45.489 41.82C49.92 46.56 52.587 53.22 53.385 61.2L53.715 64.5H2.08496L2.41496 61.2C3.21296 53.22 5.87996 46.56 10.311 41.82ZM68.562 30.78C66.939 33.69 63.759 36.75 58.506 39.72L57.903 40.08L57.297 39.72C52.044 36.75 48.864 33.69 47.241 30.78C45.606 27.87 45.549 25.14 46.623 23.01C47.688 20.94 49.8 19.62 52.143 19.5C54.126 19.41 56.187 20.16 57.903 21.87C59.616 20.16 61.677 19.41 63.657 19.5C66 19.62 68.112 20.94 69.177 23.01C70.251 25.14 70.194 27.87 68.562 30.78Z" fill="black"/>
</g>
<defs>
<clipPath id="clip0_4_141">
<rect width="72" height="72" fill="white"/>
</clipPath>
</defs>
</svg>
