<svg width="72" height="72" viewBox="0 0 72 72" fill="none" xmlns="http://www.w3.org/2000/svg">
<g clip-path="url(#clip0_4_135)">
<path d="M9 13.5C9 9.36 12.36 6 16.5 6H55.5C59.64 6 63 9.36 63 13.5V58.5C63 62.64 59.64 66 55.5 66H16.5C12.36 66 9 62.64 9 58.5V13.5ZM16.5 12C15.66 12 15 12.66 15 13.5V58.5C15 59.34 15.66 60 16.5 60H55.5C56.34 60 57 59.34 57 58.5V13.5C57 12.66 56.34 12 55.5 12H16.5ZM48 30H24V24H48V30ZM24 36H48V42H24V36Z" fill="black"/>
</g>
<defs>
<clipPath id="clip0_4_135">
<rect width="72" height="72" fill="white"/>
</clipPath>
</defs>
</svg>
