<svg width="72" height="72" viewBox="0 0 72 72" fill="none" xmlns="http://www.w3.org/2000/svg">
<g clip-path="url(#clip0_4_51)">
<path d="M24 28.5C24 24.357 26.016 21 28.5 21C30.984 21 33 24.357 33 28.5C33 32.643 30.984 36 28.5 36C26.016 36 24 32.643 24 28.5ZM43.5 36C45.984 36 48 32.643 48 28.5C48 24.357 45.984 21 43.5 21C41.016 21 39 24.357 39 28.5C39 32.643 41.016 36 43.5 36ZM36 48C29.328 48 26.937 41.319 26.847 41.052L21.156 42.951C21.306 43.401 24.969 54.003 36.003 54.003C47.037 54.003 50.697 43.404 50.85 42.951L45.162 41.037C45.063 41.322 42.672 48.003 36.003 48.003L36 48ZM66.75 35.997C66.75 52.953 52.956 66.747 36 66.747C19.044 66.747 5.25 52.956 5.25 36C5.25 19.044 19.044 5.25 36 5.25C52.956 5.25 66.75 19.044 66.75 36V35.997ZM60.75 35.997C60.75 22.35 49.647 11.247 36 11.247C22.353 11.247 11.25 22.353 11.25 36C11.25 49.647 22.353 60.75 36 60.75C49.647 60.75 60.75 49.647 60.75 36V35.997Z" fill="black"/>
</g>
<defs>
<clipPath id="clip0_4_51">
<rect width="72" height="72" fill="white"/>
</clipPath>
</defs>
</svg>
