<svg width="72" height="72" viewBox="0 0 72 72" fill="none" xmlns="http://www.w3.org/2000/svg">
<g clip-path="url(#clip0_4_27)">
<path d="M9 16.5C9 12.357 12.357 9 16.5 9H55.5C59.643 9 63 12.357 63 16.5V55.5C63 59.643 59.643 63 55.5 63H16.5C12.357 63 9 59.643 9 55.5V16.5ZM16.5 15C15.672 15 15 15.672 15 16.5V43.758L24 34.758L33 43.758L48 28.758L57 37.758V16.5C57 15.672 56.328 15 55.5 15H16.5ZM57 46.242L48 37.242L33 52.242L24 43.242L15 52.242V55.5C15 56.328 15.672 57 16.5 57H55.5C56.328 57 57 56.328 57 55.5V46.242ZM29.25 21C26.352 21 24 23.352 24 26.25C24 29.148 26.352 31.5 29.25 31.5C32.148 31.5 34.5 29.148 34.5 26.25C34.5 23.352 32.148 21 29.25 21Z" fill="black"/>
</g>
<defs>
<clipPath id="clip0_4_27">
<rect width="72" height="72" fill="white"/>
</clipPath>
</defs>
</svg>
