<svg width="72" height="72" viewBox="0 0 72 72" fill="none" xmlns="http://www.w3.org/2000/svg">
<g clip-path="url(#clip0_4_57)">
<path d="M18 9V6H24V9H42V6H48V9H52.5C56.64 9 60 12.357 60 16.5V22.5H54V16.5C54 15.672 53.34 15 52.5 15H48V18H42V15H24V18H18V15H13.5C12.66 15 12 15.672 12 16.5V52.5C12 53.328 12.66 54 13.5 54H22.5V60H13.5C9.36 60 6 56.643 6 52.5V16.5C6 12.357 9.36 9 13.5 9H18ZM46.5 33C39.03 33 33 39.045 33 46.5C33 53.955 39.03 60 46.5 60C53.97 60 60 53.955 60 46.5C60 39.045 53.97 33 46.5 33ZM27 46.5C27 35.73 35.73 27 46.5 27C57.27 27 66 35.73 66 46.5C66 57.27 57.27 66 46.5 66C35.73 66 27 57.27 27 46.5ZM43.5 39H49.5V45.258L54.63 50.379L50.37 54.621L43.5 47.742V39Z" fill="black"/>
</g>
<defs>
<clipPath id="clip0_4_57">
<rect width="72" height="72" fill="white"/>
</clipPath>
</defs>
</svg>
