<svg width="72" height="72" viewBox="0 0 72 72" fill="none" xmlns="http://www.w3.org/2000/svg">
<g clip-path="url(#clip0_4_45)">
<path d="M18 15C14.7 15 12 17.685 12 21C12 24.315 14.7 27 18 27C21.3 27 24 24.315 24 21C24 17.685 21.3 15 18 15ZM6 21C6 14.373 11.37 9 18 9C24.63 9 30 14.373 30 21C30 27.627 24.63 33 18 33C11.37 33 6 27.627 6 21ZM66 24H36V18H66V24ZM18 45C14.7 45 12 47.685 12 51C12 54.315 14.7 57 18 57C21.3 57 24 54.315 24 51C24 47.685 21.3 45 18 45ZM6 51C6 44.373 11.37 39 18 39C24.63 39 30 44.373 30 51C30 57.627 24.63 63 18 63C11.37 63 6 57.627 6 51ZM66 54H36V48H66V54ZM21 21C21 22.656 19.65 24 18 24C16.35 24 15 22.656 15 21C15 19.344 16.35 18 18 18C19.65 18 21 19.344 21 21Z" fill="black"/>
</g>
<defs>
<clipPath id="clip0_4_45">
<rect width="72" height="72" fill="white"/>
</clipPath>
</defs>
</svg>
