<svg width="72" height="72" viewBox="0 0 72 72" fill="none" xmlns="http://www.w3.org/2000/svg">
<g clip-path="url(#clip0_4_63)">
<path d="M36 20.7C30.21 20.7 25.5 25.41 25.5 31.2C25.5 36.99 30.21 41.7 36 41.7C41.79 41.7 46.5 36.99 46.5 31.2C46.5 25.41 41.79 20.7 36 20.7ZM36 35.7C33.519 35.7 31.5 33.681 31.5 31.2C31.5 28.719 33.519 26.7 36 26.7C38.481 26.7 40.5 28.719 40.5 31.2C40.5 33.681 38.481 35.7 36 35.7ZM36 5.69995C21.939 5.69995 10.5 17.139 10.5 31.2C10.5 49.101 33.363 64.548 34.335 65.196L36 66.306L37.665 65.196C38.637 64.548 61.5 49.101 61.5 31.2C61.5 17.139 50.061 5.69995 36 5.69995ZM36 59.01C31.005 55.287 16.5 43.422 16.5 31.2C16.5 20.448 25.248 11.7 36 11.7C46.752 11.7 55.5 20.448 55.5 31.2C55.5 43.419 40.995 55.284 36 59.01Z" fill="black"/>
</g>
<defs>
<clipPath id="clip0_4_63">
<rect width="72" height="72" fill="white"/>
</clipPath>
</defs>
</svg>
