<svg width="72" height="72" viewBox="0 0 72 72" fill="none" xmlns="http://www.w3.org/2000/svg">
<g clip-path="url(#clip0_4_39)">
<path d="M9 16.5C9 12.357 12.36 9 16.5 9H55.5C59.64 9 63 12.357 63 16.5V55.5C63 59.643 59.64 63 55.5 63H16.5C12.36 63 9 59.643 9 55.5V16.5ZM16.5 15C15.66 15 15 15.672 15 16.5V55.5C15 56.328 15.66 57 16.5 57H55.5C56.34 57 57 56.328 57 55.5V16.5C57 15.672 56.34 15 55.5 15H16.5ZM54 32.133V27.75H42.78V44.25H47.1V39.093H52.2V34.71H47.1V32.133H54ZM35.37 27.75H39.69V44.25H35.37V27.75ZM26.16 31.875C27.18 31.875 28.47 32.391 29.22 33.165L32.31 30.585C30.78 28.782 28.47 27.75 26.16 27.75C21.57 27.75 18 31.359 18 36C18 40.641 21.57 44.25 26.16 44.25C28.71 44.25 30.78 43.218 32.31 41.415V34.968H25.14V38.064H28.2V39.609C27.69 39.867 26.94 40.125 26.16 40.125C23.88 40.125 22.08 38.319 22.08 36C22.08 33.936 23.88 31.875 26.16 31.875Z" fill="black"/>
</g>
<defs>
<clipPath id="clip0_4_39">
<rect width="72" height="72" fill="white"/>
</clipPath>
</defs>
</svg>
