<svg width="63" height="72" viewBox="0 0 63 72" fill="none" xmlns="http://www.w3.org/2000/svg">
<path d="M1.125 36C1.125 33.9114 1.95469 31.9084 3.43153 30.4315C4.90838 28.9547 6.91142 28.125 9 28.125C11.0886 28.125 13.0916 28.9547 14.5685 30.4315C16.0453 31.9084 16.875 33.9114 16.875 36C16.875 38.0886 16.0453 40.0916 14.5685 41.5685C13.0916 43.0453 11.0886 43.875 9 43.875C6.91142 43.875 4.90838 43.0453 3.43153 41.5685C1.95469 40.0916 1.125 38.0886 1.125 36ZM23.625 36C23.625 33.9114 24.4547 31.9084 25.9315 30.4315C27.4084 28.9547 29.4114 28.125 31.5 28.125C33.5886 28.125 35.5916 28.9547 37.0685 30.4315C38.5453 31.9084 39.375 33.9114 39.375 36C39.375 38.0886 38.5453 40.0916 37.0685 41.5685C35.5916 43.0453 33.5886 43.875 31.5 43.875C29.4114 43.875 27.4084 43.0453 25.9315 41.5685C24.4547 40.0916 23.625 38.0886 23.625 36ZM54 28.125C56.0886 28.125 58.0916 28.9547 59.5685 30.4315C61.0453 31.9084 61.875 33.9114 61.875 36C61.875 38.0886 61.0453 40.0916 59.5685 41.5685C58.0916 43.0453 56.0886 43.875 54 43.875C51.9114 43.875 49.9084 43.0453 48.4315 41.5685C46.9547 40.0916 46.125 38.0886 46.125 36C46.125 33.9114 46.9547 31.9084 48.4315 30.4315C49.9084 28.9547 51.9114 28.125 54 28.125Z" fill="black"/>
</svg>
