<svg width="72" height="72" viewBox="0 0 72 72" fill="none" xmlns="http://www.w3.org/2000/svg">
<g clip-path="url(#clip0_4_18)">
<path d="M58.5 29.25C58.5 35.7047 56.4047 41.6672 52.875 46.5047L70.6781 64.3219C72.4359 66.0797 72.4359 68.9344 70.6781 70.6922C68.9203 72.45 66.0656 72.45 64.3078 70.6922L46.5047 52.875C41.6672 56.4187 35.7047 58.5 29.25 58.5C13.0922 58.5 0 45.4078 0 29.25C0 13.0922 13.0922 0 29.25 0C45.4078 0 58.5 13.0922 58.5 29.25ZM29.25 49.5C31.9093 49.5 34.5425 48.9762 36.9993 47.9586C39.4562 46.9409 41.6885 45.4493 43.5689 43.5689C45.4493 41.6885 46.9409 39.4562 47.9586 36.9993C48.9762 34.5425 49.5 31.9093 49.5 29.25C49.5 26.5907 48.9762 23.9575 47.9586 21.5007C46.9409 19.0438 45.4493 16.8115 43.5689 14.9311C41.6885 13.0507 39.4562 11.5591 36.9993 10.5414C34.5425 9.52378 31.9093 9 29.25 9C26.5907 9 23.9575 9.52378 21.5007 10.5414C19.0438 11.5591 16.8115 13.0507 14.9311 14.9311C13.0507 16.8115 11.5591 19.0438 10.5414 21.5007C9.52378 23.9575 9 26.5907 9 29.25C9 31.9093 9.52378 34.5425 10.5414 36.9993C11.5591 39.4562 13.0507 41.6885 14.9311 43.5689C16.8115 45.4493 19.0438 46.9409 21.5007 47.9586C23.9575 48.9762 26.5907 49.5 29.25 49.5Z" fill="black"/>
</g>
<defs>
<clipPath id="clip0_4_18">
<rect width="72" height="72" fill="white"/>
</clipPath>
</defs>
</svg>
