<svg width="72" height="72" viewBox="0 0 72 72" fill="none" xmlns="http://www.w3.org/2000/svg">
<g clip-path="url(#clip0_4_213)">
<path d="M50.091 15.51C46.425 15.33 42.054 17.04 38.421 21.99L36.0059 25.26L33.588 21.99C29.952 17.04 25.578 15.33 21.912 15.51C18.183 15.72 14.865 17.85 13.182 21.24C11.526 24.6 11.283 29.58 14.619 35.7C17.841 41.61 24.39 48.51 36.0059 55.53C47.6159 48.51 54.162 41.61 57.384 35.7C60.717 29.58 60.4739 24.6 58.8149 21.24C57.1319 17.85 53.817 15.72 50.091 15.51ZM62.652 38.58C58.599 46.02 50.649 53.94 37.515 61.59L36.0059 62.49L34.494 61.59C21.357 53.94 13.407 46.02 9.34795 38.58C5.26795 31.08 5.11795 24 7.80595 18.57C10.467 13.2 15.747 9.83997 21.609 9.53997C26.562 9.26997 31.713 11.22 36.003 15.57C40.29 11.22 45.441 9.26997 50.391 9.53997C56.253 9.83997 61.533 13.2 64.194 18.57C66.882 24 66.732 31.08 62.652 38.58Z" fill="black"/>
</g>
<defs>
<clipPath id="clip0_4_213">
<rect width="72" height="72" fill="white"/>
</clipPath>
</defs>
</svg>
