<svg width="72" height="72" viewBox="0 0 72 72" fill="none" xmlns="http://www.w3.org/2000/svg">
<g clip-path="url(#clip0_4_201)">
<path d="M5.25293 30.45C5.25293 17.19 16.0049 6.45001 29.2679 6.45001H42.3659C55.8359 6.45001 66.7529 17.37 66.7529 30.84C66.7529 39.72 61.9319 47.88 54.1649 52.17L30.0029 65.55V54.48H29.8019C16.3319 54.78 5.25293 43.95 5.25293 30.45ZM29.2679 12.45C19.3169 12.45 11.2529 20.52 11.2529 30.45C11.2529 40.56 19.5629 48.69 29.6669 48.48L30.7199 48.45H36.0029V55.35L51.2639 46.92C57.1169 43.68 60.7529 37.53 60.7529 30.84C60.7529 20.67 52.5209 12.45 42.3659 12.45H29.2679Z" fill="black"/>
</g>
<defs>
<clipPath id="clip0_4_201">
<rect width="72" height="72" fill="white"/>
</clipPath>
</defs>
</svg>
