<svg width="72" height="72" viewBox="0 0 72 72" fill="none" xmlns="http://www.w3.org/2000/svg">
<g clip-path="url(#clip0_4_207)">
<path d="M13.5001 11.64L26.7961 24.06L22.7041 28.44L16.5001 22.65V48C16.5001 51.3 19.1881 54 22.5001 54H39.0001V60H22.5001C15.8731 60 10.5001 54.63 10.5001 48V22.65L4.2961 28.44L0.204102 24.06L13.5001 11.64ZM49.5001 18H33.0001V12H49.5001C56.1271 12 61.5001 17.37 61.5001 24V49.35L67.7041 43.56L71.7961 47.94L58.5001 60.36L45.2041 47.94L49.2961 43.56L55.5001 49.35V24C55.5001 20.7 52.8121 18 49.5001 18Z" fill="black"/>
</g>
<defs>
<clipPath id="clip0_4_207">
<rect width="72" height="72" fill="white"/>
</clipPath>
</defs>
</svg>
